<?xml version="1.0" encoding="utf-8"?>
<svg class="icon" viewBox="0 0 16 16" version="1.1" xmlns="http://www.w3.org/2000/svg">
  <defs/>
  <path d="M 15.033 2.521 C 15.344 1.804 14.839 1.289 14.116 1.586 L 0.807 7.056 C 0.058 7.363 0.112 8.084 0.902 8.277 L 6.945 9.746 L 6.659 9.465 L 8.082 14.974 C 8.155 15.264 8.518 15.365 8.733 15.155 C 8.832 15.057 8.871 14.914 8.836 14.779 L 7.414 9.269 C 7.378 9.131 7.268 9.021 7.128 8.988 L 1.085 7.518 C 1.046 7.51 1.008 7.497 0.972 7.48 C 1.008 7.503 1.049 7.561 1.055 7.65 C 1.062 7.74 1.031 7.802 0.999 7.832 C 1.01 7.821 1.044 7.8 1.103 7.776 L 14.414 2.309 C 14.447 2.294 14.481 2.282 14.519 2.279 C 14.475 2.273 14.435 2.253 14.406 2.22 C 14.373 2.19 14.353 2.149 14.349 2.106 C 14.349 2.119 14.34 2.157 14.317 2.208 L 10.107 11.875 C 9.987 12.152 10.211 12.454 10.51 12.42 C 10.648 12.403 10.767 12.314 10.823 12.188 L 15.033 2.521 Z" fill="#0000" style=""/>
</svg>