<?xml version="1.0" encoding="utf-8"?>
<svg class="icon" viewBox="0 0 16 16" version="1.1" xmlns="http://www.w3.org/2000/svg">
  <defs/>
  <path d="M 15.581 1.797 C 15.905 1.055 15.38 0.521 14.631 0.83 L 0.841 6.496 C 0.065 6.815 0.123 7.562 0.94 7.761 L 7.2 9.283 L 6.905 8.992 L 8.379 14.699 C 8.456 15.001 8.831 15.106 9.053 14.887 C 9.157 14.786 9.198 14.638 9.161 14.498 L 7.688 8.79 C 7.651 8.645 7.536 8.533 7.392 8.498 L 1.13 6.976 C 1.09 6.967 1.051 6.954 1.013 6.935 C 1.05 6.96 1.091 7.019 1.099 7.112 C 1.106 7.205 1.073 7.269 1.041 7.299 C 1.052 7.289 1.089 7.268 1.148 7.243 L 14.939 1.577 C 14.974 1.561 15.011 1.55 15.048 1.546 C 15.003 1.541 14.962 1.52 14.932 1.485 C 14.898 1.455 14.878 1.413 14.873 1.367 C 14.873 1.382 14.863 1.42 14.84 1.474 L 10.479 11.491 C 10.353 11.775 10.585 12.088 10.894 12.053 C 11.037 12.036 11.162 11.945 11.219 11.813 L 15.581 1.797 Z" fill="#1296db" style=""/>
</svg>