<?xml version="1.0" encoding="utf-8"?>
<svg class="icon" viewBox="0 0 16 16" version="1.1" xmlns="http://www.w3.org/2000/svg">
  <defs/>
  <path d="M 15.274 1.763 C 15.589 1.042 15.078 0.523 14.349 0.822 L 0.926 6.338 C 0.171 6.648 0.226 7.376 1.022 7.569 L 7.117 9.051 L 6.829 8.767 L 8.263 14.324 C 8.338 14.617 8.703 14.718 8.92 14.506 C 9.021 14.408 9.061 14.263 9.025 14.128 L 7.59 8.571 C 7.554 8.432 7.444 8.321 7.302 8.287 L 1.207 6.806 C 1.169 6.797 1.129 6.784 1.094 6.765 C 1.129 6.789 1.17 6.848 1.176 6.937 C 1.184 7.028 1.152 7.092 1.121 7.121 C 1.13 7.11 1.168 7.091 1.225 7.066 L 14.65 1.55 C 14.683 1.535 14.719 1.525 14.755 1.52 C 14.711 1.516 14.672 1.494 14.642 1.461 C 14.61 1.431 14.589 1.391 14.586 1.346 C 14.586 1.362 14.576 1.397 14.552 1.45 L 10.307 11.199 C 10.186 11.478 10.411 11.782 10.711 11.748 C 10.852 11.732 10.972 11.643 11.028 11.514 L 15.274 1.763 Z" fill="#309e11" style=""/>
</svg>